<svg fill="#ffc20a" height="512pt" viewBox="-78 0 512 512" width="512pt" xmlns="http://www.w3.org/2000/svg"><path d="M178.164 512C79.922 512 0 431.633 0 332.848c0-43.051 14.664-72.32 31.648-106.211 9.426-18.82 19.176-38.278 28.18-63.106l9.367-25.832c13.813 3.383 9.133 2.239 22.942 5.621l-3.633 27.239c-2.973 22.257 1.09 47.504 11.14 69.261 4.262 9.23 9.407 17.422 15.118 24.23-1.98-36.14 1.722-70.976 11.074-103.937 9.805-34.55 25.535-66.406 46.758-94.687 26.414-35.192 56.75-58.176 70.816-60.067L283.277 0 256.45 29.977c-12.187 13.613-18.898 31.187-18.898 49.484 0 35.367 21.695 60.465 46.812 89.527 16.106 18.63 34.356 39.746 48.18 65.688 16.004 30.031 23.781 62.14 23.781 98.172 0 98.785-79.922 179.152-178.16 179.152zm0 0"/></svg>